<mxfile host="app.diagrams.net" agent="Mozilla/5.0 (Windows NT 10.0; Win64; x64) AppleWebKit/537.36 (KHTML, like Gecko) Chrome/134.0.0.0 Safari/537.36 Edg/134.0.0.0" version="26.1.3">
  <diagram id="R2lEEEUBdFMjLlhIrx00" name="Page-1">
    <mxGraphModel dx="1510" dy="3188" grid="1" gridSize="8" guides="1" tooltips="1" connect="1" arrows="1" fold="1" page="1" pageScale="1" pageWidth="1654" pageHeight="2336" math="0" shadow="0" extFonts="Permanent Marker^https://fonts.googleapis.com/css?family=Permanent+Marker">
      <root>
        <mxCell id="0" />
        <mxCell id="1" parent="0" />
        <mxCell id="C-vyLk0tnHw3VtMMgP7b-13" value="DoctorsInClinics" style="shape=table;startSize=30;container=1;collapsible=1;childLayout=tableLayout;fixedRows=1;rowLines=0;fontStyle=1;align=center;resizeLast=1;" parent="1" vertex="1">
          <mxGeometry x="240" y="104" width="240" height="152" as="geometry" />
        </mxCell>
        <mxCell id="C-vyLk0tnHw3VtMMgP7b-14" value="" style="shape=partialRectangle;collapsible=0;dropTarget=0;pointerEvents=0;fillColor=none;points=[[0,0.5],[1,0.5]];portConstraint=eastwest;top=0;left=0;right=0;bottom=1;" parent="C-vyLk0tnHw3VtMMgP7b-13" vertex="1">
          <mxGeometry y="30" width="240" height="30" as="geometry" />
        </mxCell>
        <mxCell id="C-vyLk0tnHw3VtMMgP7b-15" value="PK" style="shape=partialRectangle;overflow=hidden;connectable=0;fillColor=none;top=0;left=0;bottom=0;right=0;fontStyle=1;" parent="C-vyLk0tnHw3VtMMgP7b-14" vertex="1">
          <mxGeometry width="30" height="30" as="geometry">
            <mxRectangle width="30" height="30" as="alternateBounds" />
          </mxGeometry>
        </mxCell>
        <mxCell id="C-vyLk0tnHw3VtMMgP7b-16" value="int DoctorId NotNull" style="shape=partialRectangle;overflow=hidden;connectable=0;fillColor=none;top=0;left=0;bottom=0;right=0;align=left;spacingLeft=6;fontStyle=5;" parent="C-vyLk0tnHw3VtMMgP7b-14" vertex="1">
          <mxGeometry x="30" width="210" height="30" as="geometry">
            <mxRectangle width="210" height="30" as="alternateBounds" />
          </mxGeometry>
        </mxCell>
        <mxCell id="C-vyLk0tnHw3VtMMgP7b-17" value="" style="shape=partialRectangle;collapsible=0;dropTarget=0;pointerEvents=0;fillColor=none;points=[[0,0.5],[1,0.5]];portConstraint=eastwest;top=0;left=0;right=0;bottom=0;" parent="C-vyLk0tnHw3VtMMgP7b-13" vertex="1">
          <mxGeometry y="60" width="240" height="92" as="geometry" />
        </mxCell>
        <mxCell id="C-vyLk0tnHw3VtMMgP7b-18" value="" style="shape=partialRectangle;overflow=hidden;connectable=0;fillColor=none;top=0;left=0;bottom=0;right=0;" parent="C-vyLk0tnHw3VtMMgP7b-17" vertex="1">
          <mxGeometry width="30" height="92" as="geometry">
            <mxRectangle width="30" height="92" as="alternateBounds" />
          </mxGeometry>
        </mxCell>
        <mxCell id="C-vyLk0tnHw3VtMMgP7b-19" value="text Name &#xa;boolean IsBusyNow &#xa;boolean IsOnVocation&#xa;int WorkInThisClinic" style="shape=partialRectangle;overflow=hidden;connectable=0;fillColor=none;top=0;left=0;bottom=0;right=0;align=left;spacingLeft=6;" parent="C-vyLk0tnHw3VtMMgP7b-17" vertex="1">
          <mxGeometry x="30" width="210" height="92" as="geometry">
            <mxRectangle width="210" height="92" as="alternateBounds" />
          </mxGeometry>
        </mxCell>
        <mxCell id="8R-NbRnTEUA9MeJBHfua-17" value="ClientsInClinic" style="shape=table;startSize=30;container=1;collapsible=1;childLayout=tableLayout;fixedRows=1;rowLines=0;fontStyle=1;align=center;resizeLast=1;" parent="1" vertex="1">
          <mxGeometry x="960" y="104" width="240" height="128" as="geometry" />
        </mxCell>
        <mxCell id="8R-NbRnTEUA9MeJBHfua-18" value="" style="shape=partialRectangle;collapsible=0;dropTarget=0;pointerEvents=0;fillColor=none;points=[[0,0.5],[1,0.5]];portConstraint=eastwest;top=0;left=0;right=0;bottom=1;" parent="8R-NbRnTEUA9MeJBHfua-17" vertex="1">
          <mxGeometry y="30" width="240" height="30" as="geometry" />
        </mxCell>
        <mxCell id="8R-NbRnTEUA9MeJBHfua-19" value="PK" style="shape=partialRectangle;overflow=hidden;connectable=0;fillColor=none;top=0;left=0;bottom=0;right=0;fontStyle=1;" parent="8R-NbRnTEUA9MeJBHfua-18" vertex="1">
          <mxGeometry width="30" height="30" as="geometry">
            <mxRectangle width="30" height="30" as="alternateBounds" />
          </mxGeometry>
        </mxCell>
        <mxCell id="8R-NbRnTEUA9MeJBHfua-20" value="int ClientId NotNull" style="shape=partialRectangle;overflow=hidden;connectable=0;fillColor=none;top=0;left=0;bottom=0;right=0;align=left;spacingLeft=6;fontStyle=5;" parent="8R-NbRnTEUA9MeJBHfua-18" vertex="1">
          <mxGeometry x="30" width="210" height="30" as="geometry">
            <mxRectangle width="210" height="30" as="alternateBounds" />
          </mxGeometry>
        </mxCell>
        <mxCell id="8R-NbRnTEUA9MeJBHfua-21" value="" style="shape=partialRectangle;collapsible=0;dropTarget=0;pointerEvents=0;fillColor=none;points=[[0,0.5],[1,0.5]];portConstraint=eastwest;top=0;left=0;right=0;bottom=0;" parent="8R-NbRnTEUA9MeJBHfua-17" vertex="1">
          <mxGeometry y="60" width="240" height="68" as="geometry" />
        </mxCell>
        <mxCell id="8R-NbRnTEUA9MeJBHfua-22" value="" style="shape=partialRectangle;overflow=hidden;connectable=0;fillColor=none;top=0;left=0;bottom=0;right=0;" parent="8R-NbRnTEUA9MeJBHfua-21" vertex="1">
          <mxGeometry width="30" height="68" as="geometry">
            <mxRectangle width="30" height="68" as="alternateBounds" />
          </mxGeometry>
        </mxCell>
        <mxCell id="8R-NbRnTEUA9MeJBHfua-23" value="text Name &#xa;date DateOfBirth&#xa;int Age&#xa;text Sex" style="shape=partialRectangle;overflow=hidden;connectable=0;fillColor=none;top=0;left=0;bottom=0;right=0;align=left;spacingLeft=6;" parent="8R-NbRnTEUA9MeJBHfua-21" vertex="1">
          <mxGeometry x="30" width="210" height="68" as="geometry">
            <mxRectangle width="210" height="68" as="alternateBounds" />
          </mxGeometry>
        </mxCell>
        <mxCell id="8R-NbRnTEUA9MeJBHfua-24" value="PetsInClinic" style="shape=table;startSize=30;container=1;collapsible=1;childLayout=tableLayout;fixedRows=1;rowLines=0;fontStyle=1;align=center;resizeLast=1;" parent="1" vertex="1">
          <mxGeometry x="600" y="336" width="240" height="120" as="geometry" />
        </mxCell>
        <mxCell id="8R-NbRnTEUA9MeJBHfua-25" value="" style="shape=partialRectangle;collapsible=0;dropTarget=0;pointerEvents=0;fillColor=none;points=[[0,0.5],[1,0.5]];portConstraint=eastwest;top=0;left=0;right=0;bottom=1;" parent="8R-NbRnTEUA9MeJBHfua-24" vertex="1">
          <mxGeometry y="30" width="240" height="30" as="geometry" />
        </mxCell>
        <mxCell id="8R-NbRnTEUA9MeJBHfua-26" value="PK" style="shape=partialRectangle;overflow=hidden;connectable=0;fillColor=none;top=0;left=0;bottom=0;right=0;fontStyle=1;" parent="8R-NbRnTEUA9MeJBHfua-25" vertex="1">
          <mxGeometry width="30" height="30" as="geometry">
            <mxRectangle width="30" height="30" as="alternateBounds" />
          </mxGeometry>
        </mxCell>
        <mxCell id="8R-NbRnTEUA9MeJBHfua-27" value="int PetId NotNull" style="shape=partialRectangle;overflow=hidden;connectable=0;fillColor=none;top=0;left=0;bottom=0;right=0;align=left;spacingLeft=6;fontStyle=5;" parent="8R-NbRnTEUA9MeJBHfua-25" vertex="1">
          <mxGeometry x="30" width="210" height="30" as="geometry">
            <mxRectangle width="210" height="30" as="alternateBounds" />
          </mxGeometry>
        </mxCell>
        <mxCell id="8R-NbRnTEUA9MeJBHfua-28" value="" style="shape=partialRectangle;collapsible=0;dropTarget=0;pointerEvents=0;fillColor=none;points=[[0,0.5],[1,0.5]];portConstraint=eastwest;top=0;left=0;right=0;bottom=0;" parent="8R-NbRnTEUA9MeJBHfua-24" vertex="1">
          <mxGeometry y="60" width="240" height="60" as="geometry" />
        </mxCell>
        <mxCell id="8R-NbRnTEUA9MeJBHfua-29" value="" style="shape=partialRectangle;overflow=hidden;connectable=0;fillColor=none;top=0;left=0;bottom=0;right=0;" parent="8R-NbRnTEUA9MeJBHfua-28" vertex="1">
          <mxGeometry width="30" height="60" as="geometry">
            <mxRectangle width="30" height="60" as="alternateBounds" />
          </mxGeometry>
        </mxCell>
        <mxCell id="8R-NbRnTEUA9MeJBHfua-30" value="text Name &#xa;text Type&#xa;int Mass&#xa;" style="shape=partialRectangle;overflow=hidden;connectable=0;fillColor=none;top=0;left=0;bottom=0;right=0;align=left;spacingLeft=6;" parent="8R-NbRnTEUA9MeJBHfua-28" vertex="1">
          <mxGeometry x="30" width="210" height="60" as="geometry">
            <mxRectangle width="210" height="60" as="alternateBounds" />
          </mxGeometry>
        </mxCell>
        <mxCell id="8R-NbRnTEUA9MeJBHfua-31" value="MidicamentsInCLinic" style="shape=table;startSize=30;container=1;collapsible=1;childLayout=tableLayout;fixedRows=1;rowLines=0;fontStyle=1;align=center;resizeLast=1;" parent="1" vertex="1">
          <mxGeometry x="976" y="-145" width="240" height="120" as="geometry" />
        </mxCell>
        <mxCell id="8R-NbRnTEUA9MeJBHfua-32" value="" style="shape=partialRectangle;collapsible=0;dropTarget=0;pointerEvents=0;fillColor=none;points=[[0,0.5],[1,0.5]];portConstraint=eastwest;top=0;left=0;right=0;bottom=1;" parent="8R-NbRnTEUA9MeJBHfua-31" vertex="1">
          <mxGeometry y="30" width="240" height="30" as="geometry" />
        </mxCell>
        <mxCell id="8R-NbRnTEUA9MeJBHfua-33" value="PK" style="shape=partialRectangle;overflow=hidden;connectable=0;fillColor=none;top=0;left=0;bottom=0;right=0;fontStyle=1;" parent="8R-NbRnTEUA9MeJBHfua-32" vertex="1">
          <mxGeometry width="30" height="30" as="geometry">
            <mxRectangle width="30" height="30" as="alternateBounds" />
          </mxGeometry>
        </mxCell>
        <mxCell id="8R-NbRnTEUA9MeJBHfua-34" value="int MedicamentId NotNull" style="shape=partialRectangle;overflow=hidden;connectable=0;fillColor=none;top=0;left=0;bottom=0;right=0;align=left;spacingLeft=6;fontStyle=5;" parent="8R-NbRnTEUA9MeJBHfua-32" vertex="1">
          <mxGeometry x="30" width="210" height="30" as="geometry">
            <mxRectangle width="210" height="30" as="alternateBounds" />
          </mxGeometry>
        </mxCell>
        <mxCell id="8R-NbRnTEUA9MeJBHfua-35" value="" style="shape=partialRectangle;collapsible=0;dropTarget=0;pointerEvents=0;fillColor=none;points=[[0,0.5],[1,0.5]];portConstraint=eastwest;top=0;left=0;right=0;bottom=0;" parent="8R-NbRnTEUA9MeJBHfua-31" vertex="1">
          <mxGeometry y="60" width="240" height="60" as="geometry" />
        </mxCell>
        <mxCell id="8R-NbRnTEUA9MeJBHfua-36" value="" style="shape=partialRectangle;overflow=hidden;connectable=0;fillColor=none;top=0;left=0;bottom=0;right=0;" parent="8R-NbRnTEUA9MeJBHfua-35" vertex="1">
          <mxGeometry width="30" height="60" as="geometry">
            <mxRectangle width="30" height="60" as="alternateBounds" />
          </mxGeometry>
        </mxCell>
        <mxCell id="8R-NbRnTEUA9MeJBHfua-37" value="int ClinicId&#xa;text Name &#xa;int AmountAtWarehouse" style="shape=partialRectangle;overflow=hidden;connectable=0;fillColor=none;top=0;left=0;bottom=0;right=0;align=left;spacingLeft=6;" parent="8R-NbRnTEUA9MeJBHfua-35" vertex="1">
          <mxGeometry x="30" width="210" height="60" as="geometry">
            <mxRectangle width="210" height="60" as="alternateBounds" />
          </mxGeometry>
        </mxCell>
        <mxCell id="4Jza_-GO7qN1wmMDCkpf-1" value="ClinicsInCity" style="shape=table;startSize=30;container=1;collapsible=1;childLayout=tableLayout;fixedRows=1;rowLines=0;fontStyle=1;align=center;resizeLast=1;" parent="1" vertex="1">
          <mxGeometry x="600" y="-144" width="240" height="136.00000000000045" as="geometry" />
        </mxCell>
        <mxCell id="4Jza_-GO7qN1wmMDCkpf-2" value="" style="shape=partialRectangle;collapsible=0;dropTarget=0;pointerEvents=0;fillColor=none;points=[[0,0.5],[1,0.5]];portConstraint=eastwest;top=0;left=0;right=0;bottom=1;" parent="4Jza_-GO7qN1wmMDCkpf-1" vertex="1">
          <mxGeometry y="30" width="240" height="30" as="geometry" />
        </mxCell>
        <mxCell id="4Jza_-GO7qN1wmMDCkpf-3" value="PK" style="shape=partialRectangle;overflow=hidden;connectable=0;fillColor=none;top=0;left=0;bottom=0;right=0;fontStyle=1;" parent="4Jza_-GO7qN1wmMDCkpf-2" vertex="1">
          <mxGeometry width="30" height="30" as="geometry">
            <mxRectangle width="30" height="30" as="alternateBounds" />
          </mxGeometry>
        </mxCell>
        <mxCell id="4Jza_-GO7qN1wmMDCkpf-4" value="int ClinicId NotNull" style="shape=partialRectangle;overflow=hidden;connectable=0;fillColor=none;top=0;left=0;bottom=0;right=0;align=left;spacingLeft=6;fontStyle=5;" parent="4Jza_-GO7qN1wmMDCkpf-2" vertex="1">
          <mxGeometry x="30" width="210" height="30" as="geometry">
            <mxRectangle width="210" height="30" as="alternateBounds" />
          </mxGeometry>
        </mxCell>
        <mxCell id="4Jza_-GO7qN1wmMDCkpf-5" value="" style="shape=partialRectangle;collapsible=0;dropTarget=0;pointerEvents=0;fillColor=none;points=[[0,0.5],[1,0.5]];portConstraint=eastwest;top=0;left=0;right=0;bottom=0;" parent="4Jza_-GO7qN1wmMDCkpf-1" vertex="1">
          <mxGeometry y="60" width="240" height="76" as="geometry" />
        </mxCell>
        <mxCell id="4Jza_-GO7qN1wmMDCkpf-6" value="" style="shape=partialRectangle;overflow=hidden;connectable=0;fillColor=none;top=0;left=0;bottom=0;right=0;" parent="4Jza_-GO7qN1wmMDCkpf-5" vertex="1">
          <mxGeometry width="30" height="76" as="geometry">
            <mxRectangle width="30" height="76" as="alternateBounds" />
          </mxGeometry>
        </mxCell>
        <mxCell id="4Jza_-GO7qN1wmMDCkpf-7" value="text Name &#xa;text City&#xa;text District&#xa;text Address&#xa;int LocationId" style="shape=partialRectangle;overflow=hidden;connectable=0;fillColor=none;top=0;left=0;bottom=0;right=0;align=left;spacingLeft=6;" parent="4Jza_-GO7qN1wmMDCkpf-5" vertex="1">
          <mxGeometry x="30" width="210" height="76" as="geometry">
            <mxRectangle width="210" height="76" as="alternateBounds" />
          </mxGeometry>
        </mxCell>
        <mxCell id="4Jza_-GO7qN1wmMDCkpf-8" value="Appointment" style="shape=table;startSize=30;container=1;collapsible=1;childLayout=tableLayout;fixedRows=1;rowLines=0;fontStyle=1;align=center;resizeLast=1;" parent="1" vertex="1">
          <mxGeometry x="600" y="104" width="240" height="136" as="geometry" />
        </mxCell>
        <mxCell id="4Jza_-GO7qN1wmMDCkpf-9" value="" style="shape=partialRectangle;collapsible=0;dropTarget=0;pointerEvents=0;fillColor=none;points=[[0,0.5],[1,0.5]];portConstraint=eastwest;top=0;left=0;right=0;bottom=1;" parent="4Jza_-GO7qN1wmMDCkpf-8" vertex="1">
          <mxGeometry y="30" width="240" height="30" as="geometry" />
        </mxCell>
        <mxCell id="4Jza_-GO7qN1wmMDCkpf-10" value="PK" style="shape=partialRectangle;overflow=hidden;connectable=0;fillColor=none;top=0;left=0;bottom=0;right=0;fontStyle=1;" parent="4Jza_-GO7qN1wmMDCkpf-9" vertex="1">
          <mxGeometry width="30" height="30" as="geometry">
            <mxRectangle width="30" height="30" as="alternateBounds" />
          </mxGeometry>
        </mxCell>
        <mxCell id="4Jza_-GO7qN1wmMDCkpf-11" value="int Appointment NotNull" style="shape=partialRectangle;overflow=hidden;connectable=0;fillColor=none;top=0;left=0;bottom=0;right=0;align=left;spacingLeft=6;fontStyle=5;" parent="4Jza_-GO7qN1wmMDCkpf-9" vertex="1">
          <mxGeometry x="30" width="210" height="30" as="geometry">
            <mxRectangle width="210" height="30" as="alternateBounds" />
          </mxGeometry>
        </mxCell>
        <mxCell id="4Jza_-GO7qN1wmMDCkpf-12" value="" style="shape=partialRectangle;collapsible=0;dropTarget=0;pointerEvents=0;fillColor=none;points=[[0,0.5],[1,0.5]];portConstraint=eastwest;top=0;left=0;right=0;bottom=0;" parent="4Jza_-GO7qN1wmMDCkpf-8" vertex="1">
          <mxGeometry y="60" width="240" height="76" as="geometry" />
        </mxCell>
        <mxCell id="4Jza_-GO7qN1wmMDCkpf-13" value="" style="shape=partialRectangle;overflow=hidden;connectable=0;fillColor=none;top=0;left=0;bottom=0;right=0;" parent="4Jza_-GO7qN1wmMDCkpf-12" vertex="1">
          <mxGeometry width="30" height="76" as="geometry">
            <mxRectangle width="30" height="76" as="alternateBounds" />
          </mxGeometry>
        </mxCell>
        <mxCell id="4Jza_-GO7qN1wmMDCkpf-14" value="int Client Id&#xa;int DoctorId&#xa;int PetId&#xa;int ClinicId&#xa;date DateOfAppointment" style="shape=partialRectangle;overflow=hidden;connectable=0;fillColor=none;top=0;left=0;bottom=0;right=0;align=left;spacingLeft=6;" parent="4Jza_-GO7qN1wmMDCkpf-12" vertex="1">
          <mxGeometry x="30" width="210" height="76" as="geometry">
            <mxRectangle width="210" height="76" as="alternateBounds" />
          </mxGeometry>
        </mxCell>
        <mxCell id="4Jza_-GO7qN1wmMDCkpf-16" value="" style="edgeStyle=entityRelationEdgeStyle;fontSize=12;html=1;endArrow=ERzeroToMany;startArrow=ERzeroToOne;rounded=0;exitX=0.994;exitY=0.114;exitDx=0;exitDy=0;exitPerimeter=0;entryX=0;entryY=0.142;entryDx=0;entryDy=0;entryPerimeter=0;" parent="1" source="4Jza_-GO7qN1wmMDCkpf-1" target="8R-NbRnTEUA9MeJBHfua-31" edge="1">
          <mxGeometry width="100" height="100" relative="1" as="geometry">
            <mxPoint x="904" y="28" as="sourcePoint" />
            <mxPoint x="1004" y="-72" as="targetPoint" />
          </mxGeometry>
        </mxCell>
        <mxCell id="4Jza_-GO7qN1wmMDCkpf-18" value="" style="edgeStyle=orthogonalEdgeStyle;fontSize=12;html=1;endArrow=ERzeroToMany;startArrow=ERzeroToOne;rounded=0;entryX=0.25;entryY=0;entryDx=0;entryDy=0;exitX=-0.005;exitY=0.089;exitDx=0;exitDy=0;exitPerimeter=0;" parent="1" source="4Jza_-GO7qN1wmMDCkpf-1" target="4Jza_-GO7qN1wmMDCkpf-8" edge="1">
          <mxGeometry width="100" height="100" relative="1" as="geometry">
            <mxPoint x="584" y="-136" as="sourcePoint" />
            <mxPoint x="820" y="32" as="targetPoint" />
            <Array as="points">
              <mxPoint x="552" y="-132" />
              <mxPoint x="552" y="80" />
              <mxPoint x="660" y="80" />
            </Array>
          </mxGeometry>
        </mxCell>
        <mxCell id="4Jza_-GO7qN1wmMDCkpf-19" value="" style="edgeStyle=orthogonalEdgeStyle;fontSize=12;html=1;endArrow=ERzeroToMany;startArrow=ERzeroToOne;rounded=0;entryX=0.465;entryY=0;entryDx=0;entryDy=0;exitX=0.611;exitY=-0.003;exitDx=0;exitDy=0;exitPerimeter=0;entryPerimeter=0;" parent="1" source="C-vyLk0tnHw3VtMMgP7b-13" target="4Jza_-GO7qN1wmMDCkpf-1" edge="1">
          <mxGeometry width="100" height="100" relative="1" as="geometry">
            <mxPoint x="384" y="78.45000000000002" as="sourcePoint" />
            <mxPoint x="711.6" y="-168.03" as="targetPoint" />
            <Array as="points">
              <mxPoint x="387" y="72" />
              <mxPoint x="387" y="72" />
              <mxPoint x="387" y="-216" />
              <mxPoint x="712" y="-216" />
            </Array>
          </mxGeometry>
        </mxCell>
        <mxCell id="4Jza_-GO7qN1wmMDCkpf-23" value="" style="edgeStyle=entityRelationEdgeStyle;fontSize=12;html=1;endArrow=ERzeroToMany;startArrow=ERzeroToOne;rounded=0;entryX=1.008;entryY=0.105;entryDx=0;entryDy=0;entryPerimeter=0;exitX=0;exitY=0.123;exitDx=0;exitDy=0;exitPerimeter=0;" parent="1" source="4Jza_-GO7qN1wmMDCkpf-8" target="C-vyLk0tnHw3VtMMgP7b-13" edge="1">
          <mxGeometry width="100" height="100" relative="1" as="geometry">
            <mxPoint x="560" y="216" as="sourcePoint" />
            <mxPoint x="576" y="112" as="targetPoint" />
          </mxGeometry>
        </mxCell>
        <mxCell id="4Jza_-GO7qN1wmMDCkpf-24" value="" style="edgeStyle=entityRelationEdgeStyle;fontSize=12;html=1;endArrow=ERzeroToMany;startArrow=ERzeroToOne;rounded=0;entryX=-0.004;entryY=0.134;entryDx=0;entryDy=0;entryPerimeter=0;exitX=1;exitY=0.117;exitDx=0;exitDy=0;exitPerimeter=0;" parent="1" source="4Jza_-GO7qN1wmMDCkpf-8" target="8R-NbRnTEUA9MeJBHfua-17" edge="1">
          <mxGeometry width="100" height="100" relative="1" as="geometry">
            <mxPoint x="888" y="228" as="sourcePoint" />
            <mxPoint x="988" y="128" as="targetPoint" />
          </mxGeometry>
        </mxCell>
        <mxCell id="4Jza_-GO7qN1wmMDCkpf-25" value="" style="fontSize=12;html=1;endArrow=ERzeroToMany;startArrow=ERzeroToOne;rounded=0;entryX=0.5;entryY=0;entryDx=0;entryDy=0;" parent="1" target="8R-NbRnTEUA9MeJBHfua-24" edge="1">
          <mxGeometry width="100" height="100" relative="1" as="geometry">
            <mxPoint x="720" y="241" as="sourcePoint" />
            <mxPoint x="860" y="184" as="targetPoint" />
          </mxGeometry>
        </mxCell>
        <mxCell id="4Jza_-GO7qN1wmMDCkpf-26" value="Location" style="shape=table;startSize=30;container=1;collapsible=1;childLayout=tableLayout;fixedRows=1;rowLines=0;fontStyle=1;align=center;resizeLast=1;" parent="1" vertex="1">
          <mxGeometry x="792" y="-392" width="240" height="119" as="geometry" />
        </mxCell>
        <mxCell id="4Jza_-GO7qN1wmMDCkpf-27" value="" style="shape=partialRectangle;collapsible=0;dropTarget=0;pointerEvents=0;fillColor=none;points=[[0,0.5],[1,0.5]];portConstraint=eastwest;top=0;left=0;right=0;bottom=1;" parent="4Jza_-GO7qN1wmMDCkpf-26" vertex="1">
          <mxGeometry y="30" width="240" height="30" as="geometry" />
        </mxCell>
        <mxCell id="4Jza_-GO7qN1wmMDCkpf-28" value="PK" style="shape=partialRectangle;overflow=hidden;connectable=0;fillColor=none;top=0;left=0;bottom=0;right=0;fontStyle=1;" parent="4Jza_-GO7qN1wmMDCkpf-27" vertex="1">
          <mxGeometry width="30" height="30" as="geometry">
            <mxRectangle width="30" height="30" as="alternateBounds" />
          </mxGeometry>
        </mxCell>
        <mxCell id="4Jza_-GO7qN1wmMDCkpf-29" value="int LocationId" style="shape=partialRectangle;overflow=hidden;connectable=0;fillColor=none;top=0;left=0;bottom=0;right=0;align=left;spacingLeft=6;fontStyle=5;" parent="4Jza_-GO7qN1wmMDCkpf-27" vertex="1">
          <mxGeometry x="30" width="210" height="30" as="geometry">
            <mxRectangle width="210" height="30" as="alternateBounds" />
          </mxGeometry>
        </mxCell>
        <mxCell id="4Jza_-GO7qN1wmMDCkpf-30" value="" style="shape=partialRectangle;collapsible=0;dropTarget=0;pointerEvents=0;fillColor=none;points=[[0,0.5],[1,0.5]];portConstraint=eastwest;top=0;left=0;right=0;bottom=0;" parent="4Jza_-GO7qN1wmMDCkpf-26" vertex="1">
          <mxGeometry y="60" width="240" height="59" as="geometry" />
        </mxCell>
        <mxCell id="4Jza_-GO7qN1wmMDCkpf-31" value="" style="shape=partialRectangle;overflow=hidden;connectable=0;fillColor=none;top=0;left=0;bottom=0;right=0;" parent="4Jza_-GO7qN1wmMDCkpf-30" vertex="1">
          <mxGeometry width="30" height="59" as="geometry">
            <mxRectangle width="30" height="59" as="alternateBounds" />
          </mxGeometry>
        </mxCell>
        <mxCell id="4Jza_-GO7qN1wmMDCkpf-32" value="int Longitude&#xa;int Latitude&#xa;date DateOfBuilding" style="shape=partialRectangle;overflow=hidden;connectable=0;fillColor=none;top=0;left=0;bottom=0;right=0;align=left;spacingLeft=6;" parent="4Jza_-GO7qN1wmMDCkpf-30" vertex="1">
          <mxGeometry x="30" width="210" height="59" as="geometry">
            <mxRectangle width="210" height="59" as="alternateBounds" />
          </mxGeometry>
        </mxCell>
        <mxCell id="4Jza_-GO7qN1wmMDCkpf-34" value="" style="fontSize=12;html=1;endArrow=ERmandOne;startArrow=ERmandOne;rounded=0;exitX=0.854;exitY=-0.008;exitDx=0;exitDy=0;exitPerimeter=0;" parent="1" source="4Jza_-GO7qN1wmMDCkpf-1" edge="1">
          <mxGeometry width="100" height="100" relative="1" as="geometry">
            <mxPoint x="856" y="-228" as="sourcePoint" />
            <mxPoint x="805" y="-272" as="targetPoint" />
          </mxGeometry>
        </mxCell>
        <mxCell id="ttYdHTSdMF-qlDJ7H5H2-159" value="DoctorsInClinics" style="shape=table;startSize=30;container=1;collapsible=1;childLayout=tableLayout;fixedRows=1;rowLines=0;fontStyle=1;align=center;resizeLast=1;" vertex="1" parent="1">
          <mxGeometry x="48" y="1392" width="272" height="152" as="geometry" />
        </mxCell>
        <mxCell id="ttYdHTSdMF-qlDJ7H5H2-160" value="" style="shape=partialRectangle;collapsible=0;dropTarget=0;pointerEvents=0;fillColor=none;points=[[0,0.5],[1,0.5]];portConstraint=eastwest;top=0;left=0;right=0;bottom=1;" vertex="1" parent="ttYdHTSdMF-qlDJ7H5H2-159">
          <mxGeometry y="30" width="272" height="30" as="geometry" />
        </mxCell>
        <mxCell id="ttYdHTSdMF-qlDJ7H5H2-161" value="PK" style="shape=partialRectangle;overflow=hidden;connectable=0;fillColor=none;top=0;left=0;bottom=0;right=0;fontStyle=1;" vertex="1" parent="ttYdHTSdMF-qlDJ7H5H2-160">
          <mxGeometry width="30" height="30" as="geometry">
            <mxRectangle width="30" height="30" as="alternateBounds" />
          </mxGeometry>
        </mxCell>
        <mxCell id="ttYdHTSdMF-qlDJ7H5H2-162" value="int DoctorId SERIAL" style="shape=partialRectangle;overflow=hidden;connectable=0;fillColor=none;top=0;left=0;bottom=0;right=0;align=left;spacingLeft=6;fontStyle=5;" vertex="1" parent="ttYdHTSdMF-qlDJ7H5H2-160">
          <mxGeometry x="30" width="242" height="30" as="geometry">
            <mxRectangle width="242" height="30" as="alternateBounds" />
          </mxGeometry>
        </mxCell>
        <mxCell id="ttYdHTSdMF-qlDJ7H5H2-163" value="" style="shape=partialRectangle;collapsible=0;dropTarget=0;pointerEvents=0;fillColor=none;points=[[0,0.5],[1,0.5]];portConstraint=eastwest;top=0;left=0;right=0;bottom=0;" vertex="1" parent="ttYdHTSdMF-qlDJ7H5H2-159">
          <mxGeometry y="60" width="272" height="92" as="geometry" />
        </mxCell>
        <mxCell id="ttYdHTSdMF-qlDJ7H5H2-164" value="" style="shape=partialRectangle;overflow=hidden;connectable=0;fillColor=none;top=0;left=0;bottom=0;right=0;" vertex="1" parent="ttYdHTSdMF-qlDJ7H5H2-163">
          <mxGeometry width="30" height="92" as="geometry">
            <mxRectangle width="30" height="92" as="alternateBounds" />
          </mxGeometry>
        </mxCell>
        <mxCell id="ttYdHTSdMF-qlDJ7H5H2-165" value="text FIO UNIQUE&#xa;boolean IsBusyNow &#xa;boolean IsOnVocation&#xa;FK integer WorkInThisClinic NOTNULL &gt; 0" style="shape=partialRectangle;overflow=hidden;connectable=0;fillColor=none;top=0;left=0;bottom=0;right=0;align=left;spacingLeft=6;" vertex="1" parent="ttYdHTSdMF-qlDJ7H5H2-163">
          <mxGeometry x="30" width="242" height="92" as="geometry">
            <mxRectangle width="242" height="92" as="alternateBounds" />
          </mxGeometry>
        </mxCell>
        <mxCell id="ttYdHTSdMF-qlDJ7H5H2-166" value="ClientsInClinic" style="shape=table;startSize=30;container=1;collapsible=1;childLayout=tableLayout;fixedRows=1;rowLines=0;fontStyle=1;align=center;resizeLast=1;" vertex="1" parent="1">
          <mxGeometry x="1000" y="1216" width="240" height="128" as="geometry" />
        </mxCell>
        <mxCell id="ttYdHTSdMF-qlDJ7H5H2-167" value="" style="shape=partialRectangle;collapsible=0;dropTarget=0;pointerEvents=0;fillColor=none;points=[[0,0.5],[1,0.5]];portConstraint=eastwest;top=0;left=0;right=0;bottom=1;" vertex="1" parent="ttYdHTSdMF-qlDJ7H5H2-166">
          <mxGeometry y="30" width="240" height="30" as="geometry" />
        </mxCell>
        <mxCell id="ttYdHTSdMF-qlDJ7H5H2-168" value="PK" style="shape=partialRectangle;overflow=hidden;connectable=0;fillColor=none;top=0;left=0;bottom=0;right=0;fontStyle=1;" vertex="1" parent="ttYdHTSdMF-qlDJ7H5H2-167">
          <mxGeometry width="30" height="30" as="geometry">
            <mxRectangle width="30" height="30" as="alternateBounds" />
          </mxGeometry>
        </mxCell>
        <mxCell id="ttYdHTSdMF-qlDJ7H5H2-169" value="int ClientId SERIAL" style="shape=partialRectangle;overflow=hidden;connectable=0;fillColor=none;top=0;left=0;bottom=0;right=0;align=left;spacingLeft=6;fontStyle=5;" vertex="1" parent="ttYdHTSdMF-qlDJ7H5H2-167">
          <mxGeometry x="30" width="210" height="30" as="geometry">
            <mxRectangle width="210" height="30" as="alternateBounds" />
          </mxGeometry>
        </mxCell>
        <mxCell id="ttYdHTSdMF-qlDJ7H5H2-170" value="" style="shape=partialRectangle;collapsible=0;dropTarget=0;pointerEvents=0;fillColor=none;points=[[0,0.5],[1,0.5]];portConstraint=eastwest;top=0;left=0;right=0;bottom=0;" vertex="1" parent="ttYdHTSdMF-qlDJ7H5H2-166">
          <mxGeometry y="60" width="240" height="68" as="geometry" />
        </mxCell>
        <mxCell id="ttYdHTSdMF-qlDJ7H5H2-171" value="" style="shape=partialRectangle;overflow=hidden;connectable=0;fillColor=none;top=0;left=0;bottom=0;right=0;" vertex="1" parent="ttYdHTSdMF-qlDJ7H5H2-170">
          <mxGeometry width="30" height="68" as="geometry">
            <mxRectangle width="30" height="68" as="alternateBounds" />
          </mxGeometry>
        </mxCell>
        <mxCell id="ttYdHTSdMF-qlDJ7H5H2-172" value="text FIO UNIQUE &#xa;date DateOfBirth&#xa;int Age NOTNULL &gt; 0&#xa;text Sex IN(&#39;MALE&#39;, &#39;FEMALE&#39;)" style="shape=partialRectangle;overflow=hidden;connectable=0;fillColor=none;top=0;left=0;bottom=0;right=0;align=left;spacingLeft=6;" vertex="1" parent="ttYdHTSdMF-qlDJ7H5H2-170">
          <mxGeometry x="30" width="210" height="68" as="geometry">
            <mxRectangle width="210" height="68" as="alternateBounds" />
          </mxGeometry>
        </mxCell>
        <mxCell id="ttYdHTSdMF-qlDJ7H5H2-173" value="PetsInClinic" style="shape=table;startSize=30;container=1;collapsible=1;childLayout=tableLayout;fixedRows=1;rowLines=0;fontStyle=1;align=center;resizeLast=1;" vertex="1" parent="1">
          <mxGeometry x="641" y="1448" width="240" height="120" as="geometry" />
        </mxCell>
        <mxCell id="ttYdHTSdMF-qlDJ7H5H2-174" value="" style="shape=partialRectangle;collapsible=0;dropTarget=0;pointerEvents=0;fillColor=none;points=[[0,0.5],[1,0.5]];portConstraint=eastwest;top=0;left=0;right=0;bottom=1;" vertex="1" parent="ttYdHTSdMF-qlDJ7H5H2-173">
          <mxGeometry y="30" width="240" height="30" as="geometry" />
        </mxCell>
        <mxCell id="ttYdHTSdMF-qlDJ7H5H2-175" value="PK" style="shape=partialRectangle;overflow=hidden;connectable=0;fillColor=none;top=0;left=0;bottom=0;right=0;fontStyle=1;" vertex="1" parent="ttYdHTSdMF-qlDJ7H5H2-174">
          <mxGeometry width="30" height="30" as="geometry">
            <mxRectangle width="30" height="30" as="alternateBounds" />
          </mxGeometry>
        </mxCell>
        <mxCell id="ttYdHTSdMF-qlDJ7H5H2-176" value="int PetId SERIAL" style="shape=partialRectangle;overflow=hidden;connectable=0;fillColor=none;top=0;left=0;bottom=0;right=0;align=left;spacingLeft=6;fontStyle=5;" vertex="1" parent="ttYdHTSdMF-qlDJ7H5H2-174">
          <mxGeometry x="30" width="210" height="30" as="geometry">
            <mxRectangle width="210" height="30" as="alternateBounds" />
          </mxGeometry>
        </mxCell>
        <mxCell id="ttYdHTSdMF-qlDJ7H5H2-177" value="" style="shape=partialRectangle;collapsible=0;dropTarget=0;pointerEvents=0;fillColor=none;points=[[0,0.5],[1,0.5]];portConstraint=eastwest;top=0;left=0;right=0;bottom=0;" vertex="1" parent="ttYdHTSdMF-qlDJ7H5H2-173">
          <mxGeometry y="60" width="240" height="60" as="geometry" />
        </mxCell>
        <mxCell id="ttYdHTSdMF-qlDJ7H5H2-178" value="" style="shape=partialRectangle;overflow=hidden;connectable=0;fillColor=none;top=0;left=0;bottom=0;right=0;" vertex="1" parent="ttYdHTSdMF-qlDJ7H5H2-177">
          <mxGeometry width="30" height="60" as="geometry">
            <mxRectangle width="30" height="60" as="alternateBounds" />
          </mxGeometry>
        </mxCell>
        <mxCell id="ttYdHTSdMF-qlDJ7H5H2-179" value="text Name &#xa;text Type NOTNULL&#xa;integer Mass &#xa;" style="shape=partialRectangle;overflow=hidden;connectable=0;fillColor=none;top=0;left=0;bottom=0;right=0;align=left;spacingLeft=6;" vertex="1" parent="ttYdHTSdMF-qlDJ7H5H2-177">
          <mxGeometry x="30" width="210" height="60" as="geometry">
            <mxRectangle width="210" height="60" as="alternateBounds" />
          </mxGeometry>
        </mxCell>
        <mxCell id="ttYdHTSdMF-qlDJ7H5H2-180" value="MidicamentsInCLinic" style="shape=table;startSize=30;container=1;collapsible=1;childLayout=tableLayout;fixedRows=1;rowLines=0;fontStyle=1;align=center;resizeLast=1;" vertex="1" parent="1">
          <mxGeometry x="1016" y="967" width="264" height="120" as="geometry" />
        </mxCell>
        <mxCell id="ttYdHTSdMF-qlDJ7H5H2-181" value="" style="shape=partialRectangle;collapsible=0;dropTarget=0;pointerEvents=0;fillColor=none;points=[[0,0.5],[1,0.5]];portConstraint=eastwest;top=0;left=0;right=0;bottom=1;" vertex="1" parent="ttYdHTSdMF-qlDJ7H5H2-180">
          <mxGeometry y="30" width="264" height="30" as="geometry" />
        </mxCell>
        <mxCell id="ttYdHTSdMF-qlDJ7H5H2-182" value="PK" style="shape=partialRectangle;overflow=hidden;connectable=0;fillColor=none;top=0;left=0;bottom=0;right=0;fontStyle=1;" vertex="1" parent="ttYdHTSdMF-qlDJ7H5H2-181">
          <mxGeometry width="30" height="30" as="geometry">
            <mxRectangle width="30" height="30" as="alternateBounds" />
          </mxGeometry>
        </mxCell>
        <mxCell id="ttYdHTSdMF-qlDJ7H5H2-183" value="int MedicamentId SERIAL" style="shape=partialRectangle;overflow=hidden;connectable=0;fillColor=none;top=0;left=0;bottom=0;right=0;align=left;spacingLeft=6;fontStyle=5;" vertex="1" parent="ttYdHTSdMF-qlDJ7H5H2-181">
          <mxGeometry x="30" width="234" height="30" as="geometry">
            <mxRectangle width="234" height="30" as="alternateBounds" />
          </mxGeometry>
        </mxCell>
        <mxCell id="ttYdHTSdMF-qlDJ7H5H2-184" value="" style="shape=partialRectangle;collapsible=0;dropTarget=0;pointerEvents=0;fillColor=none;points=[[0,0.5],[1,0.5]];portConstraint=eastwest;top=0;left=0;right=0;bottom=0;" vertex="1" parent="ttYdHTSdMF-qlDJ7H5H2-180">
          <mxGeometry y="60" width="264" height="60" as="geometry" />
        </mxCell>
        <mxCell id="ttYdHTSdMF-qlDJ7H5H2-185" value="" style="shape=partialRectangle;overflow=hidden;connectable=0;fillColor=none;top=0;left=0;bottom=0;right=0;" vertex="1" parent="ttYdHTSdMF-qlDJ7H5H2-184">
          <mxGeometry width="30" height="60" as="geometry">
            <mxRectangle width="30" height="60" as="alternateBounds" />
          </mxGeometry>
        </mxCell>
        <mxCell id="ttYdHTSdMF-qlDJ7H5H2-186" value="FK int ClinicId&#xa;text Name &#xa;int AmountAtWarehouse" style="shape=partialRectangle;overflow=hidden;connectable=0;fillColor=none;top=0;left=0;bottom=0;right=0;align=left;spacingLeft=6;" vertex="1" parent="ttYdHTSdMF-qlDJ7H5H2-184">
          <mxGeometry x="30" width="234" height="60" as="geometry">
            <mxRectangle width="234" height="60" as="alternateBounds" />
          </mxGeometry>
        </mxCell>
        <mxCell id="ttYdHTSdMF-qlDJ7H5H2-187" value="ClinicsInCity" style="shape=table;startSize=30;container=1;collapsible=1;childLayout=tableLayout;fixedRows=1;rowLines=0;fontStyle=1;align=center;resizeLast=1;" vertex="1" parent="1">
          <mxGeometry x="640" y="968" width="240" height="156.00000000000045" as="geometry" />
        </mxCell>
        <mxCell id="ttYdHTSdMF-qlDJ7H5H2-188" value="" style="shape=partialRectangle;collapsible=0;dropTarget=0;pointerEvents=0;fillColor=none;points=[[0,0.5],[1,0.5]];portConstraint=eastwest;top=0;left=0;right=0;bottom=1;" vertex="1" parent="ttYdHTSdMF-qlDJ7H5H2-187">
          <mxGeometry y="30" width="240" height="50" as="geometry" />
        </mxCell>
        <mxCell id="ttYdHTSdMF-qlDJ7H5H2-189" value="PK" style="shape=partialRectangle;overflow=hidden;connectable=0;fillColor=none;top=0;left=0;bottom=0;right=0;fontStyle=1;" vertex="1" parent="ttYdHTSdMF-qlDJ7H5H2-188">
          <mxGeometry width="30" height="50" as="geometry">
            <mxRectangle width="30" height="50" as="alternateBounds" />
          </mxGeometry>
        </mxCell>
        <mxCell id="ttYdHTSdMF-qlDJ7H5H2-190" value="int ClinicId SERIAL" style="shape=partialRectangle;overflow=hidden;connectable=0;fillColor=none;top=0;left=0;bottom=0;right=0;align=left;spacingLeft=6;fontStyle=5;" vertex="1" parent="ttYdHTSdMF-qlDJ7H5H2-188">
          <mxGeometry x="30" width="210" height="50" as="geometry">
            <mxRectangle width="210" height="50" as="alternateBounds" />
          </mxGeometry>
        </mxCell>
        <mxCell id="ttYdHTSdMF-qlDJ7H5H2-191" value="" style="shape=partialRectangle;collapsible=0;dropTarget=0;pointerEvents=0;fillColor=none;points=[[0,0.5],[1,0.5]];portConstraint=eastwest;top=0;left=0;right=0;bottom=0;" vertex="1" parent="ttYdHTSdMF-qlDJ7H5H2-187">
          <mxGeometry y="80" width="240" height="76" as="geometry" />
        </mxCell>
        <mxCell id="ttYdHTSdMF-qlDJ7H5H2-192" value="" style="shape=partialRectangle;overflow=hidden;connectable=0;fillColor=none;top=0;left=0;bottom=0;right=0;" vertex="1" parent="ttYdHTSdMF-qlDJ7H5H2-191">
          <mxGeometry width="30" height="76" as="geometry">
            <mxRectangle width="30" height="76" as="alternateBounds" />
          </mxGeometry>
        </mxCell>
        <mxCell id="ttYdHTSdMF-qlDJ7H5H2-193" value="text Name &#xa;text City&#xa;text District&#xa;text Address&#xa;FK int LocationId" style="shape=partialRectangle;overflow=hidden;connectable=0;fillColor=none;top=0;left=0;bottom=0;right=0;align=left;spacingLeft=6;" vertex="1" parent="ttYdHTSdMF-qlDJ7H5H2-191">
          <mxGeometry x="30" width="210" height="76" as="geometry">
            <mxRectangle width="210" height="76" as="alternateBounds" />
          </mxGeometry>
        </mxCell>
        <mxCell id="ttYdHTSdMF-qlDJ7H5H2-194" value="Appointment" style="shape=table;startSize=30;container=1;collapsible=1;childLayout=tableLayout;fixedRows=1;rowLines=0;fontStyle=1;align=center;resizeLast=1;" vertex="1" parent="1">
          <mxGeometry x="640" y="1216" width="256" height="136" as="geometry" />
        </mxCell>
        <mxCell id="ttYdHTSdMF-qlDJ7H5H2-195" value="" style="shape=partialRectangle;collapsible=0;dropTarget=0;pointerEvents=0;fillColor=none;points=[[0,0.5],[1,0.5]];portConstraint=eastwest;top=0;left=0;right=0;bottom=1;" vertex="1" parent="ttYdHTSdMF-qlDJ7H5H2-194">
          <mxGeometry y="30" width="256" height="30" as="geometry" />
        </mxCell>
        <mxCell id="ttYdHTSdMF-qlDJ7H5H2-196" value="PK" style="shape=partialRectangle;overflow=hidden;connectable=0;fillColor=none;top=0;left=0;bottom=0;right=0;fontStyle=1;" vertex="1" parent="ttYdHTSdMF-qlDJ7H5H2-195">
          <mxGeometry width="30" height="30" as="geometry">
            <mxRectangle width="30" height="30" as="alternateBounds" />
          </mxGeometry>
        </mxCell>
        <mxCell id="ttYdHTSdMF-qlDJ7H5H2-197" value="int Appointment SERIAL" style="shape=partialRectangle;overflow=hidden;connectable=0;fillColor=none;top=0;left=0;bottom=0;right=0;align=left;spacingLeft=6;fontStyle=5;" vertex="1" parent="ttYdHTSdMF-qlDJ7H5H2-195">
          <mxGeometry x="30" width="226" height="30" as="geometry">
            <mxRectangle width="226" height="30" as="alternateBounds" />
          </mxGeometry>
        </mxCell>
        <mxCell id="ttYdHTSdMF-qlDJ7H5H2-198" value="" style="shape=partialRectangle;collapsible=0;dropTarget=0;pointerEvents=0;fillColor=none;points=[[0,0.5],[1,0.5]];portConstraint=eastwest;top=0;left=0;right=0;bottom=0;" vertex="1" parent="ttYdHTSdMF-qlDJ7H5H2-194">
          <mxGeometry y="60" width="256" height="76" as="geometry" />
        </mxCell>
        <mxCell id="ttYdHTSdMF-qlDJ7H5H2-199" value="" style="shape=partialRectangle;overflow=hidden;connectable=0;fillColor=none;top=0;left=0;bottom=0;right=0;" vertex="1" parent="ttYdHTSdMF-qlDJ7H5H2-198">
          <mxGeometry width="30" height="76" as="geometry">
            <mxRectangle width="30" height="76" as="alternateBounds" />
          </mxGeometry>
        </mxCell>
        <mxCell id="ttYdHTSdMF-qlDJ7H5H2-200" value="FK integer Client Id NOTNULL &gt; 0&#xa;FK integer DoctorId NOTNULL &gt; 0&#xa;FK integer PetId &gt; 0&#xa;FK integer ClinicId NOTNULL &gt; 0 &#xa;date DateOfAppointment" style="shape=partialRectangle;overflow=hidden;connectable=0;fillColor=none;top=0;left=0;bottom=0;right=0;align=left;spacingLeft=6;" vertex="1" parent="ttYdHTSdMF-qlDJ7H5H2-198">
          <mxGeometry x="30" width="226" height="76" as="geometry">
            <mxRectangle width="226" height="76" as="alternateBounds" />
          </mxGeometry>
        </mxCell>
        <mxCell id="ttYdHTSdMF-qlDJ7H5H2-201" value="" style="edgeStyle=entityRelationEdgeStyle;fontSize=12;html=1;endArrow=ERzeroToMany;startArrow=ERzeroToOne;rounded=0;exitX=1;exitY=0.5;exitDx=0;exitDy=0;entryX=-0.007;entryY=0.253;entryDx=0;entryDy=0;entryPerimeter=0;" edge="1" parent="1" source="ttYdHTSdMF-qlDJ7H5H2-188" target="ttYdHTSdMF-qlDJ7H5H2-184">
          <mxGeometry width="100" height="100" relative="1" as="geometry">
            <mxPoint x="944" y="1140" as="sourcePoint" />
            <mxPoint x="1044" y="1040" as="targetPoint" />
          </mxGeometry>
        </mxCell>
        <mxCell id="ttYdHTSdMF-qlDJ7H5H2-202" value="" style="edgeStyle=orthogonalEdgeStyle;fontSize=12;html=1;endArrow=ERzeroToMany;startArrow=ERzeroToOne;rounded=0;entryX=0.004;entryY=0.744;entryDx=0;entryDy=0;exitX=0;exitY=0.5;exitDx=0;exitDy=0;entryPerimeter=0;" edge="1" parent="1" source="ttYdHTSdMF-qlDJ7H5H2-188" target="ttYdHTSdMF-qlDJ7H5H2-198">
          <mxGeometry width="100" height="100" relative="1" as="geometry">
            <mxPoint x="624" y="976" as="sourcePoint" />
            <mxPoint x="860" y="1144" as="targetPoint" />
            <Array as="points">
              <mxPoint x="624" y="1023" />
              <mxPoint x="552" y="1024" />
              <mxPoint x="552" y="1332" />
            </Array>
          </mxGeometry>
        </mxCell>
        <mxCell id="ttYdHTSdMF-qlDJ7H5H2-203" value="" style="edgeStyle=orthogonalEdgeStyle;fontSize=12;html=1;endArrow=ERzeroToMany;startArrow=ERzeroToOne;rounded=0;exitX=1;exitY=0.793;exitDx=0;exitDy=0;exitPerimeter=0;entryX=0.014;entryY=0.805;entryDx=0;entryDy=0;entryPerimeter=0;" edge="1" parent="1" source="ttYdHTSdMF-qlDJ7H5H2-163" target="ttYdHTSdMF-qlDJ7H5H2-188">
          <mxGeometry width="100" height="100" relative="1" as="geometry">
            <mxPoint x="424" y="1190.45" as="sourcePoint" />
            <mxPoint x="640" y="1024" as="targetPoint" />
            <Array as="points">
              <mxPoint x="384" y="1525" />
              <mxPoint x="384" y="1038" />
            </Array>
          </mxGeometry>
        </mxCell>
        <mxCell id="ttYdHTSdMF-qlDJ7H5H2-204" value="" style="edgeStyle=entityRelationEdgeStyle;fontSize=12;html=1;endArrow=ERzeroToMany;startArrow=ERzeroToOne;rounded=0;entryX=1;entryY=0.5;entryDx=0;entryDy=0;exitX=0.003;exitY=0.287;exitDx=0;exitDy=0;exitPerimeter=0;" edge="1" parent="1" source="ttYdHTSdMF-qlDJ7H5H2-198" target="ttYdHTSdMF-qlDJ7H5H2-160">
          <mxGeometry width="100" height="100" relative="1" as="geometry">
            <mxPoint x="600" y="1328" as="sourcePoint" />
            <mxPoint x="616" y="1224" as="targetPoint" />
          </mxGeometry>
        </mxCell>
        <mxCell id="ttYdHTSdMF-qlDJ7H5H2-205" value="" style="edgeStyle=entityRelationEdgeStyle;fontSize=12;html=1;endArrow=ERzeroToMany;startArrow=ERzeroToOne;rounded=0;entryX=0;entryY=0.5;entryDx=0;entryDy=0;exitX=1;exitY=0.5;exitDx=0;exitDy=0;" edge="1" parent="1" source="ttYdHTSdMF-qlDJ7H5H2-194" target="ttYdHTSdMF-qlDJ7H5H2-167">
          <mxGeometry width="100" height="100" relative="1" as="geometry">
            <mxPoint x="928" y="1340" as="sourcePoint" />
            <mxPoint x="1028" y="1240" as="targetPoint" />
          </mxGeometry>
        </mxCell>
        <mxCell id="ttYdHTSdMF-qlDJ7H5H2-206" value="" style="fontSize=12;html=1;endArrow=ERzeroToMany;startArrow=ERzeroToOne;rounded=0;entryX=0;entryY=0.5;entryDx=0;entryDy=0;exitX=0;exitY=0.5;exitDx=0;exitDy=0;edgeStyle=orthogonalEdgeStyle;" edge="1" parent="1" target="ttYdHTSdMF-qlDJ7H5H2-174" source="ttYdHTSdMF-qlDJ7H5H2-198">
          <mxGeometry width="100" height="100" relative="1" as="geometry">
            <mxPoint x="760" y="1353" as="sourcePoint" />
            <mxPoint x="900" y="1296" as="targetPoint" />
            <Array as="points">
              <mxPoint x="608" y="1314" />
              <mxPoint x="608" y="1493" />
            </Array>
          </mxGeometry>
        </mxCell>
        <mxCell id="ttYdHTSdMF-qlDJ7H5H2-207" value="Location" style="shape=table;startSize=30;container=1;collapsible=1;childLayout=tableLayout;fixedRows=1;rowLines=0;fontStyle=1;align=center;resizeLast=1;" vertex="1" parent="1">
          <mxGeometry x="833" y="720" width="240" height="119" as="geometry" />
        </mxCell>
        <mxCell id="ttYdHTSdMF-qlDJ7H5H2-208" value="" style="shape=partialRectangle;collapsible=0;dropTarget=0;pointerEvents=0;fillColor=none;points=[[0,0.5],[1,0.5]];portConstraint=eastwest;top=0;left=0;right=0;bottom=1;" vertex="1" parent="ttYdHTSdMF-qlDJ7H5H2-207">
          <mxGeometry y="30" width="240" height="30" as="geometry" />
        </mxCell>
        <mxCell id="ttYdHTSdMF-qlDJ7H5H2-209" value="PK" style="shape=partialRectangle;overflow=hidden;connectable=0;fillColor=none;top=0;left=0;bottom=0;right=0;fontStyle=1;" vertex="1" parent="ttYdHTSdMF-qlDJ7H5H2-208">
          <mxGeometry width="30" height="30" as="geometry">
            <mxRectangle width="30" height="30" as="alternateBounds" />
          </mxGeometry>
        </mxCell>
        <mxCell id="ttYdHTSdMF-qlDJ7H5H2-210" value="int LocationId SERIAL" style="shape=partialRectangle;overflow=hidden;connectable=0;fillColor=none;top=0;left=0;bottom=0;right=0;align=left;spacingLeft=6;fontStyle=5;" vertex="1" parent="ttYdHTSdMF-qlDJ7H5H2-208">
          <mxGeometry x="30" width="210" height="30" as="geometry">
            <mxRectangle width="210" height="30" as="alternateBounds" />
          </mxGeometry>
        </mxCell>
        <mxCell id="ttYdHTSdMF-qlDJ7H5H2-211" value="" style="shape=partialRectangle;collapsible=0;dropTarget=0;pointerEvents=0;fillColor=none;points=[[0,0.5],[1,0.5]];portConstraint=eastwest;top=0;left=0;right=0;bottom=0;" vertex="1" parent="ttYdHTSdMF-qlDJ7H5H2-207">
          <mxGeometry y="60" width="240" height="59" as="geometry" />
        </mxCell>
        <mxCell id="ttYdHTSdMF-qlDJ7H5H2-212" value="" style="shape=partialRectangle;overflow=hidden;connectable=0;fillColor=none;top=0;left=0;bottom=0;right=0;" vertex="1" parent="ttYdHTSdMF-qlDJ7H5H2-211">
          <mxGeometry width="30" height="59" as="geometry">
            <mxRectangle width="30" height="59" as="alternateBounds" />
          </mxGeometry>
        </mxCell>
        <mxCell id="ttYdHTSdMF-qlDJ7H5H2-213" value="decimal Longitude&#xa;decimal Latitude&#xa;date DateOfBuilding" style="shape=partialRectangle;overflow=hidden;connectable=0;fillColor=none;top=0;left=0;bottom=0;right=0;align=left;spacingLeft=6;" vertex="1" parent="ttYdHTSdMF-qlDJ7H5H2-211">
          <mxGeometry x="30" width="210" height="59" as="geometry">
            <mxRectangle width="210" height="59" as="alternateBounds" />
          </mxGeometry>
        </mxCell>
        <mxCell id="ttYdHTSdMF-qlDJ7H5H2-214" value="" style="fontSize=12;html=1;endArrow=ERmandOne;startArrow=ERmandOne;rounded=0;exitX=-0.012;exitY=0.882;exitDx=0;exitDy=0;exitPerimeter=0;edgeStyle=orthogonalEdgeStyle;entryX=0;entryY=0.5;entryDx=0;entryDy=0;" edge="1" parent="1" source="ttYdHTSdMF-qlDJ7H5H2-191" target="ttYdHTSdMF-qlDJ7H5H2-208">
          <mxGeometry width="100" height="100" relative="1" as="geometry">
            <mxPoint x="896" y="884" as="sourcePoint" />
            <mxPoint x="845" y="840" as="targetPoint" />
            <Array as="points">
              <mxPoint x="504" y="1115" />
              <mxPoint x="504" y="765" />
            </Array>
          </mxGeometry>
        </mxCell>
      </root>
    </mxGraphModel>
  </diagram>
</mxfile>
